{"title":"Tamanchey.2014.Hindi.HDRip.X264 - N3kr4","uid":11613092,"size":727266115,"categoryP":"video","categoryS":"movies","magnet":"?xt=urn:btih:a9ea70c0420ef3048d8ecc119221adf555422800&amp;dn=Tamanchey.2014.Hindi.HDRip.X264+-+N3kr4&amp;tr=udp%3A%2F%2Ftracker.openbittorrent.com%3A80&amp;tr=udp%3A%2F%2Fopen.demonii.com%3A1337&amp;tr=udp%3A%2F%2Ftracker.coppersurfer.tk%3A6969&amp;tr=udp%3A%2F%2Fexodus.desync.com%3A6969","seeders":1,"leechers":0,"uploader":"Falcon.G13","files":2,"time":1417482856,"description":" &lt;a href=&quot;http://i.imgur.com/99vEF4Y.jpg&quot; rel=&quot;nofollow&quot; target=&quot;_NEW&quot;&gt;http://i.imgur.com/99vEF4Y.jpg&lt;/a&gt;\n\nTamanchey (2014)\n\n113 min - Crime | Romance - 10 October 2014 (India)\n5.5 Your rating: -/10 Ratings: 5.5/10 from 66 users \nReviews: 3 user | 8 critic\n\nAn aggressive, passionate acidic love story between \ntwo criminals whilst on the run from the law.\n &lt;a href=&quot;\nhttp://i.imgur.com/ypn88Ct.jpg&quot; rel=&quot;nofollow&quot; target=&quot;_NEW&quot;&gt;\nhttp://i.imgur.com/ypn88Ct.jpg&lt;/a&gt; &lt;a href=&quot;\nhttp://i.imgur.com/mCHHXpr.jpg&quot; rel=&quot;nofollow&quot; target=&quot;_NEW&quot;&gt;\nhttp://i.imgur.com/mCHHXpr.jpg&lt;/a&gt; &lt;a href=&quot;\nhttp://i.imgur.com/1qO0Wn0.jpg&quot; rel=&quot;nofollow&quot; target=&quot;_NEW&quot;&gt;\nhttp://i.imgur.com/1qO0Wn0.jpg&lt;/a&gt; &lt;a href=&quot;\nhttp://i.imgur.com/nglPrYX.jpg&quot; rel=&quot;nofollow&quot; target=&quot;_NEW&quot;&gt;\nhttp://i.imgur.com/nglPrYX.jpg&lt;/a&gt; &lt;a href=&quot;\nhttp://i.imgur.com/ramTQ3P.jpg&quot; rel=&quot;nofollow&quot; target=&quot;_NEW&quot;&gt;\nhttp://i.imgur.com/ramTQ3P.jpg&lt;/a&gt;\n\nGeneral\nComplete name : Tamanchey.2014.Hindi.HDRip.X264 - N3kr4.mp4\nFormat : MPEG-4\nFormat profile : Base Media\nCodec ID : isom\nFile size : 693 MiB\nDuration : 1h 53mn\nOverall bit rate : 852 Kbps\nEncoded date : UTC 2014-11-29 10:04:40\nTagged date : UTC 2014-11-29 10:04:40\n\nVideo\nID : 1\nFormat : AVC\nFormat/Info : Advanced Video Codec\nFormat profile : &lt;a class=&quot;__cf_email__&quot; href=&quot;/cdn-cgi/l/email-protection&quot; data-cfemail=&quot;85c8e4ecebc5c9b6abb4&quot;&gt;[email&amp;#160;protected]&lt;/a&gt;&lt;script cf-hash='f9e31' type=&quot;text/javascript&quot;&gt;\n/* &lt;![CDATA[ */!function(){try{var t=&quot;currentScript&quot;in document?document.currentScript:function(){for(var t=document.getElementsByTagName(&quot;script&quot;),e=t.length;e--;)if(t[e].getAttribute(&quot;cf-hash&quot;))return t[e]}();if(t&amp;&amp;t.previousSibling){var e,r,n,i,c=t.previousSibling,a=c.getAttribute(&quot;data-cfemail&quot;);if(a){for(e=&quot;&quot;,r=parseInt(a.substr(0,2),16),n=2;a.length-n;n+=2)i=parseInt(a.substr(n,2),16)^r,e+=String.fromCharCode(i);e=document.createTextNode(e),c.parentNode.replaceChild(e,c)}}}catch(u){}}();/* ]]&gt; */&lt;/script&gt;\nFormat settings, CABAC : Yes\nFormat settings, ReFrames : 3 frames\nCodec ID : avc1\nCodec ID/Info : Advanced Video Coding\nDuration : 1h 53mn\nBit rate : 777 Kbps\nMaximum bit rate : 6 548 Kbps\nWidth : 640 pixels\nHeight : 272 pixels\nDisplay aspect ratio : 2.35:1\nFrame rate mode : Constant\nFrame rate : 30.000 fps\nColor space : YUV\nChroma subsampling : 4:2:0\nBit depth : 8 bits\nScan type : Progressive\nBits/(Pixel*Frame) : 0.149\nStream size : 626 MiB (90%)\nWriting library : x264 core 142 r2431 ac76440\nEncoding settings : cabac=1 / ref=3 / deblock=1:-1:-1 / analyse=0x1:0x111 / me=hex / subme=6 / psy=1 / psy_rd=1.00:0.15 / mixed_ref=1 / me_range=16 / chroma_me=1 / trellis=2 / 8x8dct=0 / cqm=0 / deadzone=21,11 / fast_pskip=1 / chroma_qp_offset=-3 / threads=48 / lookahead_threads=2 / sliced_threads=0 / nr=0 / decimate=1 / interlaced=0 / bluray_compat=0 / constrained_intra=0 / bframes=3 / b_pyramid=0 / b_adapt=2 / b_bias=0 / direct=2 / weightb=1 / open_gop=0 / weightp=2 / keyint=288 / keyint_min=28 / scenecut=48 / intra_refresh=0 / rc_lookahead=48 / rc=abr / mbtree=1 / bitrate=777 / ratetol=1.0 / qcomp=0.60 / qpmin=0 / qpmax=69 / qpstep=4 / vbv_maxrate=14000 / vbv_bufsize=14000 / nal_hrd=none / filler=0 / ip_ratio=1.40 / aq=1:1.00\nEncoded date : UTC 2014-11-29 05:46:26\nTagged date : UTC 2014-11-29 10:04:44\nColor primaries : BT.601 NTSC\nTransfer characteristics : BT.601\nMatrix coefficients : BT.601\n\nAudio\nID : 2\nFormat : MPEG Audio\nFormat version : Version 1\nFormat profile : Layer 3\nMode : Joint stereo\nMode extension : MS Stereo\nCodec ID : 6B\nDuration : 1h 53mn\nBit rate mode : Constant\nBit rate : 80.0 Kbps\nMaximum bit rate : 83.5 Kbps\nChannel(s) : 2 channels\nSampling rate : 32.0 KHz\nCompression mode : Lossy\nStream size : 65.1 MiB (9%)\nWriting library : LAME3.99r\nEncoding settings : -m j -V 4 -q 2 -lowpass 13.5 -b 80\nEncoded date : UTC 2014-11-29 10:04:44\nTagged date : UTC 2014-11-29 10:04:44","torrent":{"xt":"urn:btih:a9ea70c0420ef3048d8ecc119221adf555422800","amp;dn":"Tamanchey.2014.Hindi.HDRip.X264+-+N3kr4","amp;tr":["udp%3A%2F%2Ftracker.openbittorrent.com%3A80","udp%3A%2F%2Fopen.demonii.com%3A1337","udp%3A%2F%2Ftracker.coppersurfer.tk%3A6969","udp%3A%2F%2Fexodus.desync.com%3A6969"],"infoHash":"a9ea70c0420ef3048d8ecc119221adf555422800","infoHashBuffer":{"type":"Buffer","data":[169,234,112,192,66,14,243,4,141,142,204,17,146,33,173,245,85,66,40,0]},"announce":[],"urlList":[]}}